# xmcd CD database file
#
# Track frame offsets:
#	150
#	21365
#	41944
#	64422
#	89688
#	110378
#	131059
#	152380
#	169263
#	187966
#	208300
#
# Disc length: 3393 seconds
#
# Revision: 3
# Processed by: cddbd v1.5.1PL2 Copyright (c) Steve Scherf et al.
# Submitted via: CDex 1.51
#
DISCID=a10d3f0b
DTITLE=Devics - The Stars At Saint Andrea
DYEAR=2003
DGENRE=Alternative
TTITLE0=Red Morning 
TTITLE1=Don't Take It Away
TTITLE2=In Your Room 
TTITLE3=My True Love
TTITLE4=All Your Beautiful Trees
TTITLE5=The End And The Beginning 
TTITLE6=Safer Shores
TTITLE7=Connected By A String
TTITLE8=Stretch Out Your Arms
TTITLE9=Ending
TTITLE10=Data 
EXTD=YEAR: 2003
EXTT0=
EXTT1=
EXTT2=
EXTT3=
EXTT4=
EXTT5=
EXTT6=
EXTT7=
EXTT8=
EXTT9=
EXTT10=
PLAYORDER=
